<svg xmlns="http://www.w3.org/2000/svg" width="800" height="500" viewBox="0 0 800 500" fill="none">
  <defs>
    <linearGradient id="bg" x1="400" y1="0" x2="400" y2="500" gradientUnits="userSpaceOnUse">
      <stop stop-color="#F7FAFB"/>
      <stop offset="1" stop-color="#E5EFF1"/>
    </linearGradient>
    <linearGradient id="steel" x1="0" y1="0" x2="1" y2="1">
      <stop stop-color="#FFFFFF"/>
      <stop offset=".48" stop-color="#AEBEC2"/>
      <stop offset=".72" stop-color="#F9FCFC"/>
      <stop offset="1" stop-color="#9AAEB2"/>
    </linearGradient>
    <filter id="shadow" x="100" y="80" width="600" height="370" color-interpolation-filters="sRGB" filterUnits="userSpaceOnUse">
      <feGaussianBlur stdDeviation="12"/>
    </filter>
  </defs>
  <path fill="url(#bg)" d="M0 0h800v500H0z"/>
  <circle cx="647" cy="98" r="105" fill="#DCEDEE"/>
  <circle cx="138" cy="390" r="112" fill="#E5F0F1"/>
  <ellipse cx="402" cy="389" fill="#9BAEB2" opacity=".25" rx="253" ry="30" filter="url(#shadow)"/>
  <rect x="147" y="167" width="506" height="207" rx="19" fill="#D4E4E6" stroke="#A8BEC1" stroke-width="3"/>
  <rect x="164" y="184" width="472" height="173" rx="12" fill="#F8FBFC" stroke="#C2D1D4" stroke-width="2"/>
  <path d="M202 222c33 14 52 34 59 67m-42-79c29 17 43 42 47 76m-19-88c20 19 29 46 30 76" stroke="url(#steel)" stroke-width="12" stroke-linecap="round"/>
  <circle cx="201" cy="218" r="17" stroke="#6E858A" stroke-width="5"/>
  <circle cx="240" cy="201" r="17" stroke="#6E858A" stroke-width="5"/>
  <path d="M316 209c-25 34-27 77-9 121m21-121c-17 42-15 81 7 118m13-117c-4 39 5 75 25 106" stroke="url(#steel)" stroke-width="12" stroke-linecap="round"/>
  <path d="M311 206c-19-8-23-20-14-29 9-8 20 4 23 20 2-17 13-28 22-19 9 10 2 22-15 30" stroke="#71888D" stroke-width="4" stroke-linecap="round"/>
  <circle cx="317" cy="334" r="5" fill="#71888D"/>
  <path d="M426 211c-20 37-19 78 4 117m15-119c-11 42-7 79 13 112" stroke="url(#steel)" stroke-width="12" stroke-linecap="round"/>
  <path d="M423 207c-21-8-26-20-16-29 10-8 22 4 25 20 2-17 14-28 24-19 10 10 2 22-16 30" stroke="#71888D" stroke-width="4" stroke-linecap="round"/>
  <circle cx="429" cy="332" r="5" fill="#71888D"/>
  <path d="M532 211v111m18-111v111m-18-72h18m-18 20h18" stroke="url(#steel)" stroke-width="11" stroke-linecap="round"/>
  <path d="M526 211c-8-15-1-28 10-28 9 0 10 12 5 22m16 6c8-15 1-28-10-28-9 0-10 12-5 22" stroke="#71888D" stroke-width="4" stroke-linecap="round"/>
  <path d="M586 225c18 3 30 18 30 36v27c0 18-12 33-30 36m-1-99c-18 3-30 18-30 36v27c0 18 12 33 30 36" stroke="url(#steel)" stroke-width="12" stroke-linecap="round"/>
  <path d="M585 225v99" stroke="#71888D" stroke-width="3"/>
</svg>
